<?xml version="1.0" encoding="utf-8"?>
<!-- Generator: Adobe Illustrator 16.0.0, SVG Export Plug-In . SVG Version: 6.00 Build 0)  -->
<!DOCTYPE svg PUBLIC "-//W3C//DTD SVG 1.1//EN" "http://www.w3.org/Graphics/SVG/1.1/DTD/svg11.dtd">
<svg version="1.1" id="Layer_1" xmlns="http://www.w3.org/2000/svg" xmlns:xlink="http://www.w3.org/1999/xlink" x="0px" y="0px"
	 width="240px" height="40px" viewBox="0 0 240 40" enable-background="new 0 0 240 40" xml:space="preserve">
<g>
	<g>
		<path fill="#FFFFFF" d="M23.033,28l-1.172-3.556h-5.877L14.812,28h-3.283l5.584-16h3.849l5.669,16H23.033z M18.912,14.949
			c-0.278,1.116-0.488,1.89-0.627,2.322L16.8,21.936h4.226l-1.465-4.644c-0.125-0.418-0.24-0.823-0.345-1.213
			c-0.104-0.39-0.171-0.676-0.199-0.857l-0.062-0.272H18.912z"/>
		<path fill="#FFFFFF" d="M56.687,16.351h-3.514c-0.042-0.586-0.265-1.081-0.67-1.485c-0.404-0.404-0.976-0.606-1.715-0.606
			s-1.324,0.178-1.757,0.533c-0.433,0.356-0.648,0.819-0.648,1.391c0,0.544,0.164,0.977,0.492,1.297
			c0.327,0.321,0.867,0.551,1.62,0.69l2.427,0.439c2.816,0.516,4.225,1.987,4.225,4.413c0,1.716-0.558,3.031-1.673,3.943
			c-1.116,0.913-2.698,1.369-4.748,1.369c-1.966,0-3.504-0.438-4.612-1.316c-1.108-0.88-1.705-2.078-1.788-3.598h3.577
			c0.083,0.725,0.376,1.307,0.878,1.745c0.502,0.44,1.179,0.66,2.029,0.66c0.906,0,1.597-0.203,2.07-0.607
			c0.474-0.403,0.711-0.927,0.711-1.567c0-0.559-0.174-0.994-0.522-1.307c-0.349-0.314-0.935-0.549-1.757-0.701l-2.385-0.461
			c-1.283-0.251-2.29-0.756-3.022-1.516s-1.098-1.76-1.098-3.001c0-1.45,0.533-2.628,1.6-3.535c1.066-0.906,2.534-1.359,4.403-1.359
			c1.924,0,3.37,0.426,4.34,1.276C56.118,13.896,56.631,14.998,56.687,16.351z"/>
		<path fill="#FFFFFF" d="M60.159,28V12h10.542v2.614h-7.112v4.12h6.735v2.553h-6.735v4.119h7.3V28H60.159z"/>
		<path fill="#FFFFFF" d="M74.235,28V12h3.786l5.166,8.659c0.237,0.403,0.453,0.804,0.648,1.202s0.328,0.693,0.397,0.889
			l0.104,0.293h0.063V12h3.137v16H83.92l-5.313-8.826c-0.251-0.419-0.478-0.83-0.679-1.234c-0.203-0.404-0.339-0.704-0.408-0.899
			l-0.126-0.292h-0.062V28H74.235z"/>
		<path fill="#FFFFFF" d="M103.016,12v2.698h-4.727V28h-3.431V14.698h-4.727V12H103.016z"/>
		<path fill="#FFFFFF" d="M116.192,22.52h-1.841V28h-3.43V12h5.563c1.854,0,3.336,0.421,4.444,1.265
			c1.109,0.844,1.663,2.144,1.663,3.901c0,1.841-0.585,3.193-1.757,4.057C119.665,22.088,118.116,22.52,116.192,22.52z
			 M114.352,19.99h2.071c0.906,0,1.6-0.233,2.081-0.701c0.48-0.467,0.722-1.161,0.722-2.081c0-1.827-0.921-2.74-2.761-2.74h-2.113
			V19.99z"/>
		<path fill="#FFFFFF" d="M134.327,28l-3.012-6.086h-2.468V28h-3.431V12h6.253c1.241,0,2.315,0.195,3.222,0.585
			c1.771,0.781,2.656,2.154,2.656,4.121c0,2.12-1.032,3.584-3.096,4.392v0.043L138.029,28H134.327z M128.848,19.467h2.384
			c0.822,0,1.495-0.206,2.019-0.617c0.523-0.411,0.783-1.063,0.783-1.956c0-0.892-0.271-1.534-0.814-1.924
			c-0.545-0.39-1.186-0.585-1.924-0.585h-2.447V19.467z"/>
		<path fill="#FFFFFF" d="M140.979,28V12h10.542v2.614h-7.112v4.12h6.734v2.553h-6.734v4.119h7.3V28H140.979z"/>
		<path fill="#FFFFFF" d="M169.989,28V12h10.542v2.614h-7.112v4.12h6.735v2.553h-6.735v4.119h7.3V28H169.989z"/>
		<path fill="#FFFFFF" d="M184.066,28V12h3.785l5.166,8.659c0.236,0.403,0.452,0.804,0.648,1.202
			c0.194,0.398,0.327,0.693,0.397,0.889l0.104,0.293h0.062V12h3.138v16h-3.618l-5.312-8.826c-0.251-0.419-0.479-0.83-0.681-1.234
			c-0.202-0.404-0.338-0.704-0.407-0.899l-0.126-0.292h-0.062V28H184.066z"/>
		<path fill="#FFFFFF" d="M207.931,14.321c-1.116,0-2.012,0.499-2.688,1.496c-0.677,0.997-1.015,2.423-1.015,4.277
			c0,1.814,0.324,3.21,0.973,4.194c0.648,0.982,1.552,1.475,2.709,1.475c0.934,0,1.665-0.279,2.196-0.837
			c0.529-0.558,0.842-1.346,0.94-2.363h3.493c-0.084,1.743-0.711,3.141-1.883,4.193c-1.171,1.053-2.726,1.578-4.663,1.578
			c-2.455,0-4.313-0.707-5.575-2.122c-1.263-1.415-1.894-3.411-1.894-5.992c0-2.635,0.655-4.702,1.967-6.202
			c1.312-1.499,3.123-2.249,5.438-2.249c1.966,0,3.535,0.495,4.706,1.485c1.172,0.991,1.812,2.378,1.925,4.163h-3.535
			c-0.084-0.948-0.4-1.701-0.951-2.259C209.523,14.601,208.809,14.321,207.931,14.321z"/>
		<path fill="#FFFFFF" d="M217.74,28V12h10.541v2.614h-7.111v4.12h6.735v2.553h-6.735v4.119h7.301V28H217.74z"/>
	</g>
</g>
</svg>
